<svg xmlns="http://www.w3.org/2000/svg" width="1200" height="360" viewBox="0 0 1200 360">
  <rect width="1200" height="360" rx="28" fill="#ffffff"/>
  <rect x="1" y="1" width="1198" height="358" rx="27" fill="none" stroke="#d0d7de" stroke-width="2"/>
  <circle cx="86" cy="82" r="34" fill="#21759b"/>
  <text x="86" y="94" text-anchor="middle" font-family="Segoe UI,Arial,sans-serif" font-size="32" font-weight="700" fill="#fff">W</text>
  <text x="142" y="74" font-family="Segoe UI,Arial,sans-serif" font-size="24" font-weight="600" fill="#59636e">Guilherme Manoel da Silva</text>
  <text x="142" y="120" font-family="Segoe UI,Arial,sans-serif" font-size="44" font-weight="700" fill="#1f2328">WordPress / PHP / Elementor</text>
  <text x="76" y="176" font-family="Segoe UI,Arial,sans-serif" font-size="22" fill="#59636e">Custom plugins, Elementor integrations, interactive experiences and implementation tooling.</text>
  <rect x="76" y="226" width="166" height="42" rx="21" fill="#21759b"/>
  <text x="159" y="253" text-anchor="middle" font-family="Segoe UI,Arial,sans-serif" font-size="16" font-weight="700" fill="#fff">WordPress</text>
  <rect x="254" y="226" width="108" height="42" rx="21" fill="#777BB4"/>
  <text x="308" y="253" text-anchor="middle" font-family="Segoe UI,Arial,sans-serif" font-size="16" font-weight="700" fill="#fff">PHP</text>
  <rect x="374" y="226" width="140" height="42" rx="21" fill="#92003B"/>
  <text x="444" y="253" text-anchor="middle" font-family="Segoe UI,Arial,sans-serif" font-size="16" font-weight="700" fill="#fff">Elementor</text>
  <rect x="526" y="226" width="154" height="42" rx="21" fill="#eaeef2"/>
  <text x="603" y="253" text-anchor="middle" font-family="Segoe UI,Arial,sans-serif" font-size="16" font-weight="600" fill="#1f2328">JavaScript</text>
  <rect x="692" y="226" width="122" height="42" rx="21" fill="#eaeef2"/>
  <text x="753" y="253" text-anchor="middle" font-family="Segoe UI,Arial,sans-serif" font-size="16" font-weight="600" fill="#1f2328">Three.js</text>
  <rect x="826" y="226" width="146" height="42" rx="21" fill="#eaeef2"/>
  <text x="899" y="253" text-anchor="middle" font-family="Segoe UI,Arial,sans-serif" font-size="16" font-weight="600" fill="#1f2328">Integrations</text>
  <line x1="76" y1="306" x2="1124" y2="306" stroke="#d0d7de"/>
  <text x="76" y="334" font-family="Segoe UI,Arial,sans-serif" font-size="16" font-weight="600" fill="#59636e">PRIMARY FOCUS</text>
  <text x="240" y="334" font-family="Segoe UI,Arial,sans-serif" font-size="16" fill="#1f2328">WordPress engineering</text>
  <text x="470" y="334" font-family="Segoe UI,Arial,sans-serif" font-size="16" font-weight="600" fill="#59636e">SECONDARY</text>
  <text x="592" y="334" font-family="Segoe UI,Arial,sans-serif" font-size="16" fill="#1f2328">Full-stack &amp; integration work</text>
</svg>